<?xml version="1.0" standalone="no"?>
<!DOCTYPE svg PUBLIC "-//W3C//DTD SVG 20010904//EN"
 "http://www.w3.org/TR/2001/REC-SVG-20010904/DTD/svg10.dtd">
<svg version="1.0" xmlns="http://www.w3.org/2000/svg"
 width="459.000000pt" height="459.000000pt" viewBox="0 0 459.000000 459.000000"
 preserveAspectRatio="xMidYMid meet">
<metadata>
Created by potrace 1.11, written by Peter Selinger 2001-2013
</metadata>
<g transform="translate(0.000000,459.000000) scale(0.100000,-0.100000)"
fill="#000000" stroke="none">
<path d="M2620 4523 c-117 -16 -329 -67 -390 -94 -207 -94 -233 -113 -457
-336 -92 -92 -115 -120 -127 -160 -18 -62 -41 -110 -70 -150 -48 -66 -60 -244
-41 -610 7 -157 3 -172 -49 -138 -19 13 -29 14 -45 6 -11 -6 -29 -11 -41 -11
-11 0 -23 -7 -26 -15 -4 -8 -11 -15 -18 -15 -12 0 -46 -54 -46 -74 0 -7 -8
-28 -17 -46 -30 -62 -20 -246 22 -380 64 -206 81 -253 107 -285 27 -31 34 -35
79 -35 31 0 48 -4 44 -10 -3 -5 3 -10 14 -10 23 0 29 -21 20 -73 -3 -20 -2
-40 2 -43 5 -3 9 -20 9 -39 0 -19 5 -37 10 -40 7 -4 7 -12 2 -18 -4 -7 -9 -55
-10 -107 -2 -104 -9 -150 -22 -150 -4 0 -63 -26 -129 -58 -92 -43 -123 -62
-127 -79 -4 -13 -12 -23 -19 -23 -9 0 -26 -40 -45 -103 -75 -244 -140 -451
-145 -455 -5 -5 -74 -24 -224 -62 -80 -21 -112 -27 -193 -36 -100 -11 -233
-44 -363 -90 -71 -25 -156 -52 -187 -61 l-58 -15 0 -355 0 -354 2205 1 c1251
1 2207 5 2210 10 9 15 -39 123 -89 199 -25 39 -79 107 -120 150 -41 44 -86 96
-101 115 -34 45 -148 101 -305 149 -148 46 -161 49 -375 91 -112 23 -189 43
-205 54 -35 26 -68 78 -80 126 -21 84 -76 222 -107 269 -25 37 -31 55 -28 85
2 20 4 40 4 44 1 4 7 5 15 2 32 -12 175 180 275 371 59 113 85 145 115 145 42
0 90 37 139 106 209 298 259 386 296 529 19 72 14 100 -25 141 -28 30 -37 35
-44 24 -7 -11 -11 -9 -19 12 -13 36 -25 41 -66 29 -31 -8 -35 -7 -35 9 0 10 4
21 10 25 5 3 7 12 4 20 -3 8 4 45 17 82 12 37 22 78 21 90 -1 12 3 25 8 28 6
3 10 22 10 40 0 19 7 53 16 75 9 23 14 44 10 47 -3 3 -1 12 5 20 6 7 9 13 6
13 -3 0 -1 15 4 33 5 17 12 55 15 82 3 28 7 64 9 80 3 17 5 100 5 185 1 187
-11 241 -76 342 -74 116 -235 312 -286 349 -26 19 -48 37 -48 42 0 4 -6 7 -13
7 -7 0 -26 13 -41 29 -16 16 -42 35 -60 42 -17 7 -35 18 -41 25 -5 6 -55 30
-110 53 -97 41 -131 57 -205 98 -67 37 -133 52 -245 56 -60 1 -121 1 -135 0z"/>
</g>
</svg>
